<svg id="visual" viewBox="0 0 900 600" width="900" height="600" xmlns="http://www.w3.org/2000/svg" xmlns:xlink="http://www.w3.org/1999/xlink" version="1.1"><rect x="0" y="0" width="900" height="600" fill="#002233"></rect><path d="M0 519L21.5 510.2C43 501.3 86 483.7 128.8 466C171.7 448.3 214.3 430.7 257.2 427.7C300 424.7 343 436.3 385.8 453C428.7 469.7 471.3 491.3 514.2 490.2C557 489 600 465 642.8 460.8C685.7 456.7 728.3 472.3 771.2 468.7C814 465 857 442 878.5 430.5L900 419L900 601L878.5 601C857 601 814 601 771.2 601C728.3 601 685.7 601 642.8 601C600 601 557 601 514.2 601C471.3 601 428.7 601 385.8 601C343 601 300 601 257.2 601C214.3 601 171.7 601 128.8 601C86 601 43 601 21.5 601L0 601Z" fill="#0066FF" stroke-linecap="round" stroke-linejoin="miter"></path></svg>